<?xml version="1.0" standalone="no"?>
<!DOCTYPE svg PUBLIC "-//W3C//DTD SVG 20010904//EN"
 "http://www.w3.org/TR/2001/REC-SVG-20010904/DTD/svg10.dtd">
<svg version="1.0" xmlns="http://www.w3.org/2000/svg"
 width="807.000000pt" height="566.000000pt" viewBox="0 0 807.000000 566.000000"
 preserveAspectRatio="xMidYMid meet">
<metadata>
Created by potrace 1.16, written by Peter Selinger 2001-2019
</metadata>
<g transform="translate(0.000000,566.000000) scale(0.100000,-0.100000)"
fill="#000000" stroke="none">
<path d="M2987 5515 c-56 -22 -127 -63 -127 -73 0 -4 -19 -19 -43 -34 -45 -30
-149 -133 -209 -209 -20 -25 -51 -61 -70 -80 -82 -85 -153 -169 -196 -234 -25
-38 -52 -76 -60 -84 -7 -7 -31 -41 -54 -75 -23 -33 -48 -67 -56 -75 -28 -29
-92 -118 -92 -129 0 -7 -4 -12 -9 -12 -5 0 -18 -15 -30 -32 -11 -18 -28 -42
-38 -53 -32 -35 -83 -103 -83 -110 0 -8 -99 -147 -111 -155 -4 -3 -31 -37 -59
-75 -28 -39 -62 -83 -75 -100 -82 -101 -185 -251 -181 -262 3 -7 1 -12 -5 -10
-11 2 -49 -49 -159 -212 -54 -81 -140 -194 -159 -211 -11 -9 -76 -85 -99 -115
-69 -90 -142 -191 -142 -197 0 -4 -14 -22 -31 -40 -29 -31 -30 -31 -23 -8 4
14 8 33 8 43 0 9 3 17 6 17 3 0 12 17 19 38 8 20 25 60 38 87 13 28 34 75 45
105 12 30 27 64 35 76 7 11 10 23 7 27 -3 3 3 18 13 34 19 27 81 179 88 215 2
10 15 40 29 68 14 27 23 50 21 50 -2 0 10 33 26 73 17 39 32 77 33 82 2 6 6
17 10 25 3 8 26 74 50 145 79 235 97 289 126 370 33 90 61 205 54 216 -2 4 1
9 8 11 8 3 14 33 16 87 5 109 -13 159 -69 190 -60 34 -129 24 -226 -33 -33
-19 -142 -124 -135 -131 3 -3 0 -5 -5 -5 -15 0 -87 -70 -154 -149 -30 -36 -66
-79 -82 -95 -15 -17 -27 -34 -27 -38 0 -3 -6 -13 -13 -20 -23 -24 -175 -226
-188 -250 -6 -13 -20 -32 -30 -43 -26 -28 -84 -108 -99 -136 -7 -13 -38 -62
-69 -108 -147 -219 -171 -257 -171 -274 0 -10 -4 -16 -8 -13 -10 6 -72 -105
-72 -128 0 -8 -6 -19 -12 -23 -34 -21 -70 -152 -49 -177 21 -26 50 -26 76 0
14 14 25 29 25 34 0 5 6 15 13 22 6 8 25 38 41 68 28 55 92 161 127 212 11 15
19 32 19 37 0 6 6 14 13 18 6 4 43 54 81 111 39 56 73 102 78 102 4 0 8 6 8
13 0 6 23 41 50 76 28 35 50 67 50 71 0 3 19 27 41 51 23 24 52 60 65 79 104
152 286 352 411 451 47 38 62 45 81 38 24 -9 26 -16 13 -52 -5 -13 -12 -41
-16 -63 -4 -21 -9 -52 -12 -68 -2 -16 -9 -41 -15 -55 -5 -14 -12 -39 -15 -56
-3 -16 -9 -38 -14 -47 -5 -10 -6 -18 -2 -18 4 0 4 -4 -2 -8 -11 -7 -58 -136
-78 -212 -7 -25 -17 -54 -23 -65 -6 -11 -19 -45 -29 -75 -10 -30 -21 -59 -25
-65 -4 -5 -22 -53 -40 -105 -17 -52 -36 -100 -42 -107 -5 -7 -14 -27 -18 -45
-8 -32 -46 -128 -77 -197 -8 -18 -16 -39 -18 -45 -1 -6 -9 -28 -19 -48 -9 -21
-16 -42 -16 -47 0 -5 -6 -22 -14 -38 -8 -15 -27 -57 -42 -93 -15 -36 -37 -87
-50 -115 -41 -90 -74 -174 -74 -190 0 -8 -4 -15 -10 -15 -5 0 -10 -9 -10 -19
0 -11 -4 -23 -10 -26 -5 -3 -10 -15 -10 -26 0 -10 -4 -19 -10 -19 -5 0 -9 -3
-8 -7 3 -10 -30 -94 -54 -142 -27 -53 -24 -122 7 -151 20 -19 32 -22 74 -18
48 5 109 40 110 64 1 11 33 50 101 124 19 21 51 62 70 90 19 28 44 62 55 75
26 30 75 95 126 165 46 63 70 94 157 203 34 43 79 103 99 133 20 30 39 54 42
54 4 0 15 15 26 33 10 17 31 48 45 67 107 141 170 230 170 239 0 6 3 11 8 11
4 0 18 17 32 38 14 20 27 39 30 42 3 3 10 12 15 21 13 21 71 100 87 119 7 8
12 18 10 22 -1 5 2 8 6 8 11 0 78 92 74 103 -1 4 2 7 8 7 5 0 17 15 26 33 9
17 24 39 33 47 25 23 81 98 81 107 0 5 11 22 25 38 45 54 85 108 85 114 0 4
20 28 45 55 24 27 42 53 39 57 -3 5 1 9 8 9 8 0 22 15 33 33 10 17 22 35 27
38 5 3 10 15 11 26 0 12 6 19 12 17 13 -4 91 104 87 122 -2 8 3 14 10 14 12 0
90 81 110 114 11 17 103 118 220 240 87 89 124 120 188 154 89 48 94 45 60
-33 -11 -26 -18 -51 -14 -56 3 -5 2 -9 -3 -9 -8 0 -30 -56 -37 -90 -2 -8 -20
-51 -41 -95 -84 -181 -103 -221 -110 -245 -4 -14 -15 -43 -25 -65 -10 -22 -35
-76 -55 -120 -20 -44 -46 -102 -56 -128 -10 -26 -26 -59 -35 -72 -9 -14 -13
-25 -10 -25 4 0 1 -10 -6 -22 -7 -13 -13 -25 -13 -28 0 -3 -15 -36 -33 -73
-18 -38 -32 -70 -32 -72 0 -3 -11 -28 -24 -57 -12 -29 -38 -89 -56 -133 -18
-44 -43 -104 -56 -133 -13 -29 -24 -58 -24 -65 0 -7 -5 -18 -12 -25 -7 -7 -9
-12 -5 -12 3 0 -5 -22 -19 -50 -13 -27 -55 -125 -92 -218 -37 -92 -77 -184
-89 -204 -12 -20 -32 -65 -44 -100 -13 -34 -33 -83 -46 -107 -12 -25 -20 -48
-17 -53 7 -11 -92 -46 -208 -74 -16 -3 -28 -10 -28 -15 0 -5 -12 -9 -28 -9
-15 0 -36 -6 -47 -13 -18 -12 -153 -71 -165 -72 -9 -1 -104 -44 -120 -55 -8
-5 -37 -21 -64 -34 -80 -40 -275 -170 -276 -183 0 -7 -4 -13 -10 -13 -5 0 -39
-30 -75 -66 -121 -122 -159 -183 -164 -259 -6 -106 119 -168 229 -113 64 33
64 57 0 87 -28 13 -53 28 -56 32 -19 31 182 243 288 304 9 6 48 29 86 52 37
23 102 58 143 78 41 20 86 43 101 51 33 18 299 106 304 101 4 -3 -25 -71 -46
-109 -6 -10 -10 -23 -10 -29 0 -6 -12 -34 -26 -63 -14 -28 -39 -84 -55 -125
-16 -40 -41 -94 -54 -119 -14 -26 -25 -52 -25 -57 0 -6 -16 -40 -35 -75 -19
-36 -35 -75 -35 -87 0 -13 -4 -23 -9 -23 -5 0 -14 -15 -21 -32 -47 -120 -295
-616 -349 -698 -9 -14 -30 -52 -46 -85 -17 -33 -33 -61 -37 -63 -5 -2 -8 -9
-8 -15 0 -7 -8 -22 -18 -34 -17 -22 -122 -55 -217 -66 -22 -3 -50 -8 -62 -11
-44 -10 -149 -9 -176 2 -19 8 -27 19 -27 36 0 31 20 78 37 89 7 4 13 12 13 18
0 11 42 59 110 128 25 25 56 61 69 79 12 17 28 32 34 33 7 0 33 24 58 54 36
41 46 58 42 78 -4 19 -11 25 -27 23 -34 -4 -116 -44 -122 -60 -3 -8 -15 -17
-27 -20 -12 -3 -18 -8 -14 -12 3 -4 -10 -16 -31 -26 -119 -63 -292 -309 -292
-415 0 -25 -5 -43 -11 -43 -7 0 -5 -10 5 -25 9 -13 16 -31 16 -40 0 -9 19 -25
46 -36 41 -19 59 -20 201 -14 86 3 160 8 164 11 4 2 27 7 51 10 24 3 47 10 52
15 6 5 20 9 32 9 13 0 26 4 29 10 3 5 17 10 31 10 14 0 33 4 43 10 10 5 33 12
50 15 18 3 42 12 54 19 12 8 31 16 42 18 11 2 23 6 26 10 3 5 18 10 35 12 16
2 44 11 61 21 18 9 43 18 57 21 13 2 72 26 130 54 58 27 109 50 113 50 11 0
98 45 111 57 7 7 24 16 38 19 13 3 24 10 24 16 0 5 5 6 10 3 5 -3 10 -1 10 4
0 6 7 11 16 11 8 0 22 7 31 15 8 8 19 13 24 10 5 -4 9 -2 9 2 0 10 57 46 64
41 2 -2 15 7 28 18 13 12 57 43 98 69 71 46 181 131 188 148 2 4 8 7 14 7 5 0
15 6 22 13 7 6 37 32 67 57 44 37 104 90 176 157 7 6 13 14 13 16 0 3 18 24
40 48 61 66 65 70 104 122 33 43 103 162 96 162 -2 0 4 16 12 35 60 134 73
280 38 415 -20 75 -154 245 -194 245 -8 0 -16 4 -18 8 -7 16 -127 61 -207 77
-64 13 -112 16 -207 12 -132 -7 -149 -10 -140 -33 3 -8 1 -14 -4 -14 -6 0 -10
4 -10 10 0 15 71 184 80 190 4 3 17 33 28 68 12 34 27 75 35 90 21 40 64 141
79 185 6 20 16 37 20 37 4 0 8 8 8 19 0 10 7 24 15 31 8 7 13 15 10 19 -2 4 7
30 20 57 14 27 25 53 25 57 0 4 14 37 30 72 17 35 30 71 30 80 0 8 3 15 8 15
6 0 20 30 54 123 6 15 14 27 19 27 5 0 9 14 9 30 0 17 4 30 9 30 8 0 22 32 25
55 1 6 6 15 12 20 6 6 17 26 24 45 7 19 31 76 53 125 21 50 46 106 54 125 8
19 24 53 34 76 10 22 19 44 19 50 0 5 11 31 24 59 14 27 37 79 52 115 16 36
32 68 37 71 5 3 8 9 8 13 -1 3 6 23 15 44 9 20 17 47 17 59 1 11 5 19 10 16 4
-2 7 1 7 6 0 6 13 37 28 69 16 32 34 80 42 107 7 28 18 57 25 65 16 20 25 45
31 89 2 20 7 46 9 58 6 27 -21 110 -43 133 -48 49 -112 58 -195 25z m-477
-2680 c147 -21 263 -93 305 -190 33 -73 40 -158 20 -237 -43 -171 -121 -297
-292 -466 -57 -56 -102 -106 -99 -111 4 -5 -2 -7 -11 -5 -11 3 -36 -12 -64
-38 -85 -79 -270 -218 -289 -218 -6 0 -15 -9 -22 -20 -7 -11 -18 -20 -24 -20
-6 0 -17 -7 -24 -15 -7 -8 -21 -15 -30 -15 -10 0 -20 -3 -22 -7 -1 -5 -19 -17
-38 -27 -78 -43 -336 -174 -345 -176 -5 -1 -38 -15 -72 -31 -34 -16 -64 -29
-67 -29 -10 0 7 38 126 280 107 216 154 314 163 340 1 3 21 46 44 95 23 50 45
102 48 118 3 15 9 27 12 27 4 0 15 19 25 43 10 23 38 84 62 135 24 51 44 94
44 97 0 6 41 97 86 192 19 40 34 81 34 93 0 11 4 20 9 20 8 0 18 19 26 50 1 3
5 14 9 25 29 77 33 79 158 92 88 10 155 9 228 -2z"/>
<path d="M7455 4929 c-4 -5 -17 -9 -31 -9 -48 0 -160 -97 -317 -273 -29 -32
-54 -63 -56 -70 -2 -7 -12 -20 -22 -29 -18 -18 -115 -163 -183 -275 -21 -34
-35 -66 -31 -72 3 -6 2 -11 -3 -11 -12 0 -146 -239 -163 -290 -7 -19 -16 -38
-21 -41 -18 -12 -82 -221 -105 -341 -3 -16 -10 -28 -15 -28 -5 0 -7 -4 -4 -9
3 -5 -16 -26 -42 -47 -26 -21 -49 -41 -52 -44 -13 -14 -113 -73 -172 -102 -68
-33 -98 -19 -98 44 0 36 29 100 97 216 71 122 79 146 73 245 -2 35 -35 92 -55
95 -11 2 -28 11 -37 19 -20 18 -105 13 -158 -9 -19 -8 -51 -18 -71 -22 -21 -3
-42 -13 -49 -21 -7 -8 -17 -15 -22 -15 -32 0 -288 -228 -288 -256 0 -7 -4 -14
-9 -16 -5 -1 -40 -32 -78 -68 -110 -104 -135 -124 -203 -168 -72 -47 -100 -53
-100 -21 0 19 56 137 71 149 3 3 25 43 48 89 23 46 47 91 52 100 36 62 47 111
40 165 -4 31 -13 62 -19 68 -12 12 -105 15 -165 4 -21 -3 -54 -18 -73 -32 -19
-15 -34 -23 -34 -20 0 13 -55 -32 -138 -111 -45 -43 -82 -83 -82 -89 0 -6 -6
-11 -14 -11 -13 0 -13 4 0 28 22 44 28 159 11 202 -20 47 -48 61 -108 54 -57
-7 -135 -54 -211 -127 -28 -27 -54 -50 -56 -50 -2 0 -37 -35 -78 -77 -41 -43
-74 -75 -74 -72 0 3 9 24 20 46 11 22 31 76 46 119 29 88 27 136 -9 156 -22
12 -137 19 -137 9 0 -4 -12 -12 -27 -19 -16 -6 -59 -46 -98 -88 -256 -278
-480 -491 -538 -513 -62 -24 -54 51 17 163 20 31 36 60 36 65 0 5 4 11 8 13
13 5 70 130 72 158 4 56 -1 69 -35 90 -19 12 -45 22 -58 24 -14 1 -39 14 -57
28 -31 24 -33 31 -32 78 1 43 -3 56 -24 75 -34 32 -54 35 -110 16 -42 -14 -54
-24 -82 -71 -29 -48 -33 -61 -29 -107 l5 -53 -74 -84 c-40 -46 -83 -91 -96
-100 -12 -9 -87 -78 -166 -153 -149 -143 -182 -167 -182 -134 0 10 7 32 15 47
8 16 15 36 15 45 0 9 7 22 16 30 8 7 27 36 41 63 14 28 35 65 47 81 34 48 46
69 52 88 4 9 10 17 14 17 5 0 11 14 15 30 4 17 10 30 14 30 13 0 30 46 37 97
5 44 3 51 -22 76 -23 23 -34 27 -58 23 -34 -7 -60 -28 -80 -65 -25 -47 -102
-194 -155 -295 -134 -258 -170 -394 -124 -471 17 -28 124 -28 170 0 168 105
384 305 548 510 58 73 93 106 99 96 3 -4 24 -11 47 -14 66 -9 78 -50 31 -109
-25 -32 -79 -134 -104 -198 -6 -14 -14 -33 -19 -42 -12 -24 -21 -158 -10 -158
5 0 11 -9 14 -19 8 -32 52 -53 108 -53 29 1 56 5 62 11 5 5 16 7 23 4 7 -3 37
12 66 34 29 21 60 43 69 48 31 19 159 129 159 137 0 4 4 8 9 8 20 0 273 241
284 270 5 13 6 13 6 0 2 -36 -64 -190 -116 -273 -53 -84 -60 -103 -59 -151 2
-94 80 -112 154 -37 72 73 210 226 213 236 1 6 14 19 28 30 14 10 29 23 32 27
15 22 127 144 148 162 14 12 38 33 54 49 50 45 57 35 31 -40 -14 -38 -29 -77
-34 -88 -22 -51 -79 -174 -98 -215 -52 -111 -57 -168 -19 -192 38 -24 112 6
155 64 7 9 18 23 25 30 6 7 25 31 42 53 16 21 36 46 45 55 8 9 38 42 65 75 84
100 247 253 299 281 l49 27 -6 -32 c-4 -18 -16 -44 -27 -58 -11 -14 -20 -30
-20 -35 0 -5 -11 -24 -23 -41 -28 -37 -99 -177 -90 -177 3 0 1 -6 -4 -12 -6
-7 -13 -26 -17 -43 -4 -16 -11 -32 -16 -35 -5 -3 -13 -24 -18 -47 -28 -125
113 -190 237 -108 29 19 57 35 61 35 5 0 24 14 42 30 18 17 38 30 45 30 7 0
13 4 13 10 0 11 39 34 46 27 3 -2 7 -15 9 -28 3 -13 8 -37 11 -54 9 -46 68
-79 136 -77 47 2 250 131 281 179 4 7 17 18 29 24 20 11 20 9 15 -36 -10 -82
31 -143 109 -164 49 -13 110 -7 133 12 9 7 34 19 57 25 23 7 58 24 77 39 20
16 59 45 87 66 l50 38 1 -28 c6 -156 96 -252 241 -257 16 -1 28 -4 28 -8 0 -4
15 -5 33 -2 116 18 161 31 236 65 118 55 314 165 336 189 10 11 22 20 27 20
10 0 61 35 96 66 12 11 45 34 72 50 37 21 48 34 44 47 -3 9 0 17 6 17 7 0 9 7
6 16 -3 8 -2 13 3 10 5 -3 11 3 14 15 5 17 3 18 -11 7 -13 -11 -15 -11 -9 5 4
11 2 17 -8 17 -8 0 -23 -8 -33 -17 -10 -10 -23 -19 -28 -20 -6 -1 -43 -21 -83
-45 -40 -24 -83 -49 -97 -56 -13 -7 -24 -17 -24 -23 0 -5 -7 -9 -15 -9 -8 0
-15 -5 -15 -12 0 -6 -3 -8 -7 -5 -3 4 -25 -4 -48 -17 -58 -34 -202 -108 -250
-128 -93 -39 -113 -44 -177 -47 -123 -5 -177 49 -163 164 11 91 34 128 171
272 243 257 262 278 299 329 11 15 25 32 31 38 5 6 37 47 70 91 32 44 65 86
72 93 7 8 9 19 5 25 -3 7 -2 9 2 4 10 -8 87 108 145 218 22 41 58 109 80 150
22 42 39 79 38 83 -1 4 5 21 12 37 19 43 20 51 23 134 1 52 -2 76 -11 78 -6 3
-10 9 -7 13 7 11 -38 57 -64 65 -39 12 -61 14 -66 4z m-88 -366 c-23 -49 -61
-115 -83 -148 -22 -34 -43 -69 -47 -78 -4 -10 -44 -71 -89 -137 -46 -66 -87
-128 -93 -138 -11 -19 -13 -21 -77 -96 -49 -56 -71 -86 -64 -86 3 0 -11 -15
-29 -34 -19 -18 -35 -38 -35 -45 0 -6 -4 -10 -8 -8 -4 1 -21 -13 -38 -32 -17
-19 -33 -30 -36 -25 -3 5 11 45 32 89 20 44 44 95 51 113 8 17 18 32 22 32 5
0 5 5 2 10 -3 6 -2 10 4 10 5 0 15 16 22 35 7 19 16 35 20 35 4 0 11 9 14 20
12 39 165 279 199 313 9 9 16 19 16 24 0 8 62 84 153 187 99 111 130 91 64
-41z m-1210 -840 c3 -7 -28 -46 -69 -86 -40 -40 -103 -104 -139 -142 -142
-149 -252 -232 -270 -203 -12 20 31 122 73 172 87 103 169 185 213 213 80 52
182 76 192 46z"/>
<path d="M3208 4411 c-10 -10 -18 -23 -18 -30 0 -7 -5 -9 -10 -6 -6 4 -8 11
-5 16 4 5 4 9 1 9 -3 0 -17 -20 -32 -45 -22 -39 -25 -52 -19 -93 8 -59 46 -96
88 -88 50 10 56 12 77 31 45 41 66 139 35 165 -8 7 -15 19 -15 26 0 15 -43 29
-59 19 -6 -3 -11 -1 -11 4 0 16 -12 12 -32 -8z"/>
<path d="M7530 2950 c0 -5 -10 -10 -22 -10 -13 0 -29 -4 -36 -8 -48 -31 -248
-224 -283 -273 -12 -19 -26 -36 -29 -39 -19 -17 -92 -114 -125 -167 -22 -35
-43 -63 -47 -63 -5 0 -8 -6 -8 -13 0 -7 -15 -36 -34 -65 -19 -28 -33 -52 -30
-52 3 0 -4 -12 -16 -27 -15 -19 -17 -29 -9 -34 8 -5 7 -8 -5 -10 -11 -3 -33
-39 -57 -94 -22 -49 -44 -99 -49 -110 -5 -11 -12 -31 -15 -45 -4 -14 -13 -38
-20 -55 -7 -16 -16 -48 -19 -70 -9 -58 -24 -91 -49 -104 -12 -7 -31 -17 -42
-24 -83 -49 -123 -73 -140 -84 -79 -49 -136 -56 -165 -21 -23 29 -18 56 26
138 19 35 34 70 34 77 0 7 5 13 11 13 6 0 9 7 5 15 -3 8 -1 15 3 15 8 0 32 50
35 72 1 3 4 10 9 14 11 11 8 42 -4 46 -8 3 -7 13 4 35 11 21 16 53 14 98 -1
60 -4 68 -24 76 -13 5 -23 14 -23 20 0 6 -6 9 -14 6 -7 -3 -17 -2 -22 3 -21
21 -140 8 -196 -21 -10 -5 -24 -9 -31 -9 -17 0 -137 -70 -137 -80 0 -4 -10
-11 -22 -14 -51 -13 -278 -245 -278 -283 0 -29 -157 -154 -271 -216 -72 -39
-157 -62 -194 -53 -49 12 -97 84 -75 111 6 7 41 28 78 46 72 35 172 97 184
114 4 5 8 7 8 3 0 -22 122 100 167 169 64 95 66 188 7 234 -30 23 -42 26 -92
24 -32 -2 -79 -13 -106 -24 -26 -12 -52 -21 -57 -21 -5 0 -45 -24 -90 -52 -45
-29 -84 -53 -87 -53 -3 0 -16 -9 -28 -20 -80 -73 -80 -65 3 64 24 36 43 72 43
79 0 6 5 12 10 12 6 0 10 4 10 9 0 10 61 110 165 271 153 236 157 243 159 295
1 41 -51 77 -95 65 -17 -5 -37 -14 -43 -19 -7 -6 -15 -9 -17 -6 -5 4 -85 -111
-107 -155 -74 -142 -99 -186 -109 -193 -7 -4 -13 -16 -13 -25 0 -9 -9 -28 -20
-42 -11 -14 -20 -31 -20 -38 0 -7 -7 -15 -15 -18 -8 -4 -15 -14 -15 -24 0 -10
-7 -25 -15 -34 -8 -8 -15 -22 -15 -30 0 -9 -4 -16 -8 -16 -5 0 -21 -28 -37
-62 -16 -34 -37 -70 -48 -81 -10 -10 -25 -33 -33 -50 -57 -122 -194 -275 -368
-410 -135 -105 -154 -111 -152 -44 2 31 16 67 55 137 30 52 58 97 62 98 5 2 9
10 9 18 0 8 4 14 8 14 14 0 42 68 30 72 -8 3 -7 10 1 26 8 16 9 33 2 60 -18
65 -24 97 -23 105 1 4 -1 7 -6 7 -4 0 -13 13 -20 29 -10 24 -21 30 -60 36 -26
5 -59 8 -73 8 -27 0 -97 -21 -114 -33 -5 -4 -28 -13 -50 -20 -67 -22 -196
-117 -292 -217 -51 -53 -93 -101 -93 -107 0 -15 -62 -80 -125 -132 -27 -21
-61 -51 -76 -65 -29 -27 -139 -89 -159 -89 -20 0 -5 64 34 144 19 39 44 91 56
116 11 25 25 52 30 60 30 49 72 168 72 206 2 80 -57 130 -133 113 -67 -15
-200 -119 -350 -274 -37 -38 -70 -67 -73 -65 -3 3 5 26 16 50 12 25 22 51 24
59 1 8 7 17 12 20 10 6 74 129 70 133 -2 2 7 17 18 33 12 17 45 76 74 133 30
56 57 102 62 102 4 0 8 6 8 13 0 6 34 66 75 132 147 236 161 281 94 304 -49
17 -84 13 -108 -11 -29 -29 -111 -158 -111 -174 0 -7 -3 -14 -7 -16 -5 -1 -30
-48 -57 -103 -28 -55 -53 -101 -58 -103 -4 -2 -8 -9 -8 -17 0 -7 -7 -18 -15
-25 -8 -7 -13 -16 -10 -20 3 -5 1 -10 -3 -12 -5 -1 -29 -43 -53 -93 -24 -49
-46 -92 -49 -95 -6 -6 -30 -50 -86 -162 -24 -47 -61 -115 -81 -150 -60 -106
-113 -202 -123 -223 -12 -29 -22 -60 -18 -61 2 0 -3 -8 -9 -16 -20 -23 -55
-147 -48 -169 10 -31 71 -52 112 -38 18 6 33 15 33 20 0 5 7 9 15 9 8 0 15 3
15 8 0 12 119 153 223 263 9 11 17 21 17 24 0 2 21 27 48 56 97 106 168 175
218 211 l51 38 -5 -28 c-3 -15 -13 -38 -23 -51 -11 -13 -19 -28 -19 -33 0 -4
-26 -61 -58 -126 -63 -125 -90 -196 -97 -256 -16 -124 158 -171 282 -76 12 10
20 19 18 22 -2 2 5 4 16 5 11 1 46 25 78 52 32 28 61 51 65 51 3 0 6 -11 6
-24 0 -14 4 -27 9 -31 5 -3 12 -18 16 -34 9 -40 76 -74 136 -68 40 4 54 7 92
22 6 3 47 27 90 55 43 27 83 50 88 50 5 0 9 6 9 13 0 15 55 59 63 50 3 -3 2
-15 -2 -27 -11 -33 -6 -91 12 -115 19 -29 82 -51 134 -47 37 3 111 44 151 83
8 7 30 26 50 41 49 37 87 75 84 85 -1 4 2 7 8 7 15 0 13 -7 -16 -68 -14 -31
-28 -72 -30 -93 -3 -32 1 -41 24 -57 41 -28 93 -28 119 0 21 22 64 96 120 206
30 57 38 63 48 31 4 -11 20 -36 36 -54 17 -19 30 -38 30 -42 -1 -4 12 -26 28
-49 57 -79 196 -124 287 -93 21 7 44 13 49 14 32 4 195 97 203 117 2 4 9 8 17
8 7 0 18 7 25 15 20 24 28 18 28 -21 0 -54 38 -121 76 -133 53 -17 116 -5 183
32 77 44 213 144 213 157 0 6 9 10 19 10 16 0 20 -7 20 -42 0 -68 2 -76 17
-82 8 -3 14 -12 14 -20 0 -8 20 -24 45 -36 37 -18 55 -21 95 -15 28 4 50 11
50 17 0 5 4 6 10 3 12 -8 140 59 198 103 23 17 46 32 50 32 4 0 16 9 25 21 24
27 41 20 48 -22 3 -19 12 -47 18 -64 15 -38 75 -95 99 -95 10 0 23 -5 28 -10
9 -9 91 -22 129 -21 6 0 30 1 55 1 41 1 171 33 195 48 6 4 20 8 33 10 13 1 40
11 60 22 20 10 57 28 82 39 25 12 52 25 60 30 35 23 116 66 122 66 14 0 289
188 318 217 31 30 63 88 55 96 -3 3 -5 0 -5 -6 0 -17 -30 -15 -36 2 -6 15 -16
11 -89 -33 -45 -27 -106 -61 -147 -83 -21 -11 -36 -24 -33 -28 3 -4 -1 -7 -8
-6 -11 1 -119 -50 -299 -140 -38 -19 -68 -31 -68 -28 0 3 -11 -1 -24 -9 -12
-9 -41 -19 -62 -23 -21 -3 -44 -10 -50 -15 -12 -10 -92 -22 -141 -22 -46 1
-84 21 -116 61 -58 75 -29 135 133 272 53 44 301 290 330 326 41 51 130 172
130 177 0 3 14 21 31 39 17 18 37 47 46 63 9 17 21 33 27 37 6 4 8 8 3 8 -4 0
8 23 27 50 117 170 142 363 53 412 -12 7 -28 11 -36 9 -7 -1 -10 2 -6 8 4 7
-11 11 -44 11 -28 0 -51 -4 -51 -10z m9 -227 c-27 -75 -149 -271 -242 -389
-144 -185 -332 -392 -344 -381 -6 7 16 69 28 77 4 3 28 50 55 105 26 55 50
102 53 105 4 3 12 17 18 33 7 15 17 27 23 27 5 0 10 7 10 15 0 8 4 15 8 15 5
0 15 12 23 28 18 35 88 132 111 153 10 9 18 19 18 22 0 3 10 17 23 30 12 12
34 36 48 52 28 32 88 85 96 85 2 0 21 11 41 25 20 14 38 25 39 25 1 0 -2 -12
-8 -27z m-2066 -681 c-13 -37 -75 -111 -115 -138 -89 -59 -191 -113 -266 -139
-42 -15 -84 -30 -92 -33 -12 -5 -13 -3 -3 10 7 8 11 17 8 20 -11 11 197 178
221 178 2 0 26 15 53 34 110 77 210 112 194 68z m837 -9 c0 -8 -13 -31 -30
-49 -16 -19 -34 -51 -40 -73 -8 -30 -36 -63 -138 -159 -136 -129 -191 -176
-234 -198 -25 -13 -28 -12 -37 5 -21 38 10 117 83 214 65 87 186 210 186 190
0 -3 10 3 23 14 27 25 78 51 132 68 44 14 55 12 55 -12z m-1882 -20 c2 -13 -2
-23 -8 -23 -10 0 -123 -111 -175 -172 -107 -125 -264 -267 -295 -268 -39 0 -1
153 52 212 19 20 52 56 73 80 54 59 202 172 245 185 19 6 51 11 70 10 28 -2
36 -6 38 -24z"/>
<path d="M4877 1094 c-1 -1 -65 -4 -142 -7 -200 -7 -346 -16 -374 -22 -13 -2
-52 -5 -85 -5 -34 -1 -95 -5 -136 -10 -41 -5 -106 -11 -145 -14 -82 -6 -164
-14 -220 -22 -76 -11 -96 -14 -153 -18 -31 -3 -89 -9 -128 -15 -39 -6 -102
-13 -140 -16 -38 -3 -76 -8 -84 -10 -21 -6 -159 -25 -210 -30 -45 -4 -225 -32
-225 -36 0 -1 -9 -3 -20 -4 -49 -6 -177 -28 -256 -46 -48 -10 -102 -21 -120
-23 -19 -3 -52 -10 -74 -15 -22 -5 -74 -17 -115 -25 -151 -33 -176 -39 -205
-51 -16 -7 -52 -16 -78 -20 -27 -3 -68 -15 -92 -25 -24 -10 -45 -17 -47 -14
-4 4 -44 -7 -88 -23 -8 -3 -23 -8 -33 -10 -41 -8 -301 -91 -347 -111 -19 -9
-37 -16 -40 -17 -28 -5 -258 -128 -302 -162 -97 -74 -118 -116 -80 -163 25
-31 76 -19 137 31 26 21 52 39 58 39 19 0 147 63 147 72 0 5 5 6 10 3 6 -4 26
3 45 15 19 12 35 18 35 14 0 -4 5 -3 12 4 7 7 18 12 25 12 7 0 36 11 65 24 29
13 64 26 78 29 14 3 44 12 68 21 42 16 373 103 425 112 15 3 51 12 80 20 29 8
84 21 122 29 39 9 84 20 100 25 17 5 50 12 74 15 23 3 46 7 51 10 4 2 24 7 45
9 21 3 58 10 84 15 55 13 261 49 311 55 19 2 53 7 75 10 22 4 87 13 145 21 58
8 116 16 130 19 33 6 102 15 170 22 30 3 69 8 85 10 17 3 46 6 65 8 62 6 184
18 205 20 11 2 54 6 96 10 41 5 91 10 110 12 18 1 52 6 74 9 22 3 59 6 83 5
24 0 48 3 54 6 5 4 47 8 92 10 44 2 113 6 151 9 106 7 402 18 473 17 35 0 62
4 62 9 0 6 5 7 10 4 6 -4 50 -6 98 -6 227 1 877 -2 962 -4 52 -1 102 2 111 6
9 4 20 4 25 -1 5 -5 83 -11 174 -15 91 -3 176 -8 190 -10 64 -10 201 -21 365
-30 28 -2 75 -6 105 -9 124 -15 206 -26 230 -31 25 -6 193 -15 301 -16 55 -1
129 18 129 32 0 8 -59 -4 -81 -16 -8 -4 0 5 16 20 27 24 28 26 8 22 -16 -4
-23 0 -23 9 0 22 -58 42 -142 49 -43 4 -78 10 -78 14 0 5 -24 11 -52 15 -29 4
-64 9 -78 11 -85 13 -131 18 -270 29 -25 3 -90 9 -145 15 -269 30 -391 41
-515 47 -74 3 -166 9 -203 13 -37 4 -70 4 -73 0 -3 -5 -15 -5 -27 0 -12 4 -94
9 -182 11 -166 3 -955 6 -958 4z"/>
</g>
</svg>
